# xmcd CD database file
#
# Track frame offsets:
#	150
#	16267
#	29955
#	41922
#	58392
#	76615
#	95885
#	112007
#	127620
#	142362
#	158655
#	168042
#	188975
#	206647
#	220937
#	235187
#	249550
#	266817
#
# Disc length: 3796 seconds
#
# Revision: 0
# Processed by: cddbd v1.4PL0 Copyright (c) Steve Scherf et al.
# Submitted via: CDex 1.51
#
DISCID=0b0ed212
DTITLE=Drew's Famous - Pop Country Hits
DYEAR=1900
DGENRE=Country
TTITLE0=Honey I'm Home
TTITLE1=This Kiss
TTITLE2=You're Beginning To Get To Me
TTITLE3=Wide Open Spaces
TTITLE4=A Little Past Little Rock
TTITLE5=Commitment
TTITLE6=You're Still The One
TTITLE7=You're Easy On The Eyes
TTITLE8=Husbands And Wives
TTITLE9=Stand Beside Me
TTITLE10=Burnin' The Roadhouse Down
TTITLE11=From This Moment On
TTITLE12=Right On The Money
TTITLE13=I'm Alright
TTITLE14=There You Have It
TTITLE15=Wrong Again
TTITLE16=26 Cents
TTITLE17=To Make You Fell My Love
EXTD=
EXTT0=
EXTT1=
EXTT2=
EXTT3=
EXTT4=
EXTT5=
EXTT6=
EXTT7=
EXTT8=
EXTT9=
EXTT10=
EXTT11=
EXTT12=
EXTT13=
EXTT14=
EXTT15=
EXTT16=
EXTT17=
PLAYORDER=
